<svg xmlns="http://www.w3.org/2000/svg" width="62" height="49" viewBox="0 0 62 49">
    <g fill="none" fill-rule="evenodd">
        <path fill="#A7A7A7" d="M4.336 8.683l21.01 10.454a3 3 0 0 0 2.69-.008L48.647 8.722A3 3 0 0 1 53 11.4v23.432a3 3 0 0 1-3 3H3a3 3 0 0 1-3-3V11.368a3 3 0 0 1 4.336-2.685z" opacity=".3"/>
        <path fill="#A7A7A7" d="M3.262 1.453h46.476a3 3 0 0 1 2.145.902l.117.12a1.048 1.048 0 0 1-.276 1.668l-23.64 11.958a3 3 0 0 1-2.688.01L1.281 4.134A1.04 1.04 0 0 1 1 2.476l.117-.12a3 3 0 0 1 2.145-.903z"/>
        <circle cx="50" cy="36" r="9.577" fill="#E61130" stroke="#FFF" stroke-width="2"/>
        <text fill="#FFF" font-family="Lato-Bold, Lato" font-size="14" font-weight="bold">
            <tspan x="45.94" y="38.423">1</tspan>
        </text>
    </g>
</svg>
