<svg xmlns="http://www.w3.org/2000/svg" width="115" height="115" viewBox="0 0 115 115">
    <g fill="none" fill-rule="evenodd">
        <path fill="#A7A7A7" d="M89.947 23.264l-12.65 12.65a2 2 0 0 1-2.828 0L62.41 23.857a2 2 0 0 1 1.366-3.414l24.708-.593a2 2 0 0 1 1.462 3.414z"/>
        <path fill="#DBDBDB" d="M49.358 63.854l23.291-23.292a2 2 0 0 0 0-2.828l-11.44-11.44a2 2 0 0 0-3.306.768L46.05 61.794a2 2 0 0 0 3.307 2.06z"/>
        <path fill="#E61130" d="M92.04 24.874L77.982 38.932a2 2 0 0 0 0 2.829l12.251 12.25a2 2 0 0 0 3.41-1.277l1.807-26.308a2 2 0 0 0-3.41-1.552z"/>
        <path fill="#DBDBDB" d="M52.08 64.835L73.335 43.58a2 2 0 0 1 2.828 0L87.514 54.93a2 2 0 0 1-.833 3.328l-32.606 9.904a2 2 0 0 1-1.995-3.328z"/>
        <path stroke="#F7B5BF" stroke-width="2" d="M45.86 69.446c-8.528 8.528-17.197 11.213-21.793 6.617-4.596-4.595-.807-10.554 3.972-8.749 7.126 2.69 4.797 20.536-13.877 17.28"/>
    </g>
</svg>
