<svg xmlns="http://www.w3.org/2000/svg" width="30" height="30" viewBox="0 0 30 30">
    <g fill="none" fill-rule="evenodd">
        <path stroke="#A7A7A7" d="M29.45 14.975c0 7.994-6.482 14.475-14.476 14.475C6.981 29.45.5 22.969.5 14.975S6.981.5 14.974.5C22.968.5 29.45 6.98 29.45 14.975z"/>
        <path fill="#A7A7A7" d="M23.84 10.903a6.904 6.904 0 0 1-1.986.544 3.474 3.474 0 0 0 1.521-1.914 6.974 6.974 0 0 1-2.197.84 3.459 3.459 0 0 0-5.896 3.155 9.816 9.816 0 0 1-7.13-3.615 3.46 3.46 0 0 0 1.069 4.62 3.442 3.442 0 0 1-1.567-.434v.044a3.462 3.462 0 0 0 2.774 3.392 3.452 3.452 0 0 1-1.562.06 3.465 3.465 0 0 0 3.234 2.403 6.94 6.94 0 0 1-4.297 1.48c-.28 0-.556-.015-.825-.048a9.782 9.782 0 0 0 5.302 1.555c6.364 0 9.845-5.272 9.845-9.844 0-.15-.005-.3-.01-.447a7.015 7.015 0 0 0 1.726-1.791"/>
    </g>
</svg>
