<svg xmlns="http://www.w3.org/2000/svg" width="30" height="30" viewBox="0 0 30 30">
    <g fill="none" fill-rule="evenodd">
        <path stroke="#A7A7A7" d="M29.45 14.975c0 7.994-6.481 14.475-14.475 14.475S.5 22.969.5 14.975 6.98.5 14.975.5C22.969.5 29.45 6.98 29.45 14.975z"/>
        <path fill="#A7A7A7" d="M5.54 15.622c-.053 2.491 1.663 4.867 4.023 5.642 2.223.747 4.955.19 6.434-1.715 1.08-1.334 1.326-3.112 1.21-4.772-1.905-.018-3.809-.01-5.709-.009-.002.678 0 1.353.003 2.031 1.14.031 2.28.017 3.42.04-.287.987-.944 1.904-1.938 2.261-1.921.845-4.37-.26-4.976-2.275-.728-1.93.466-4.258 2.438-4.819 1.221-.429 2.482.054 3.527.69a27.495 27.495 0 0 0 1.513-1.56c-1.19-.995-2.716-1.605-4.287-1.472-3.08.037-5.776 2.88-5.659 5.958M20.91 13.057c-.005.568-.012 1.138-.014 1.705-.57.005-1.138.008-1.705.011v1.7c.567.001 1.138.003 1.705.01.005.567.005 1.134.011 1.704.565 0 1.131-.004 1.7 0 .001-.57.004-1.137.01-1.707l1.703-.008v-1.699c-.566-.003-1.136-.005-1.703-.01-.004-.568-.009-1.138-.01-1.705H20.91"/>
    </g>
</svg>
