<svg xmlns="http://www.w3.org/2000/svg" width="30" height="30" viewBox="0 0 30 30">
    <g fill="none" fill-rule="evenodd">
        <path fill="#A7A7A7" d="M14.943 17.567a2.586 2.586 0 0 1-2.583-2.585 2.586 2.586 0 0 1 2.583-2.583 2.588 2.588 0 0 1 2.585 2.584 2.588 2.588 0 0 1-2.585 2.584m0-7.06a4.482 4.482 0 0 0-4.476 4.476 4.482 4.482 0 0 0 4.476 4.474 4.481 4.481 0 0 0 4.475-4.475 4.48 4.48 0 0 0-4.475-4.475"/>
        <path fill="#A7A7A7" d="M21.741 19.286a2.497 2.497 0 0 1-2.493 2.494h-8.61a2.495 2.495 0 0 1-2.491-2.494v-8.608a2.494 2.494 0 0 1 2.491-2.493h8.61a2.496 2.496 0 0 1 2.493 2.493v8.608zM19.248 6.293h-8.61a4.39 4.39 0 0 0-4.383 4.385v8.608a4.389 4.389 0 0 0 4.383 4.384h8.61a4.388 4.388 0 0 0 4.383-4.384v-8.608a4.39 4.39 0 0 0-4.383-4.385z"/>
        <path fill="#A7A7A7" d="M19.563 9.314a1.06 1.06 0 1 0 0 2.117 1.06 1.06 0 0 0 0-2.117"/>
        <path stroke="#A7A7A7" d="M14.943 29.385C6.966 29.385.5 22.92.5 14.942.5 6.966 6.966.5 14.943.5c7.977 0 14.443 6.466 14.443 14.442 0 7.977-6.466 14.443-14.443 14.443z"/>
    </g>
</svg>
