<svg xmlns="http://www.w3.org/2000/svg" width="27" height="27" viewBox="0 0 27 27">
    <path fill="#E61130" fill-rule="evenodd" d="M15.883 0l-3.056 4.17L10.9 1.763l-.73 2.995L5.638 2.27l.792 5.11-3.067-.338 1.6 2.636L0 11.119l4.17 3.054-2.406 1.93 2.996.73-2.491 4.53 5.11-.788-.335 3.065 2.635-1.601L11.12 27l3.054-4.17 1.928 2.405.732-2.994 4.53 2.488-.789-5.108 3.065.338-1.603-2.636L27 15.881l-4.168-3.055 2.407-1.928-2.995-.73 2.488-4.53-5.111.788.34-3.064-2.637 1.6L15.884 0zm-1.519 4.62l.926-1.265.437 1.503.715 2.467 1.615-.98-.208 1.877 2.538-.391 1.555-.24-.756 1.374-1.237 2.252 1.836.447-1.474 1.181 2.072 1.518 1.264.925-1.507.438-2.466.718.984 1.615-1.877-.206.39 2.537.24 1.552-1.375-.757-2.25-1.234-.448 1.834-1.182-1.474-1.518 2.07-.924 1.265-.438-1.505-.716-2.466-1.618.983.206-1.879-2.536.392-1.552.239.757-1.374 1.237-2.251-1.84-.449 1.476-1.182-2.07-1.517-1.263-.926 1.502-.437 2.466-.717-.982-1.616 1.884.207-.394-2.539-.24-1.549 1.373.755 2.25 1.236.449-1.834 1.18 1.474 1.52-2.072z"/>
</svg>
