<svg width="24" height="24" xmlns="http://www.w3.org/2000/svg">

 <g>
  <title>background</title>
  <rect fill="none" id="canvas_background" height="402" width="582" y="-1" x="-1"/>
 </g>
 <g>
  <title>Layer 1</title>
  <path fill="#e61130" id="svg_2" d="m12,16c-2.206,0 -4,-1.795 -4,-4l0,-6c0,-2.205 1.794,-4 4,-4s4,1.795 4,4l0,6c0,2.205 -1.794,4 -4,4zm0,-12c-1.103,0 -2,0.896 -2,2l0,6c0,1.104 0.897,2 2,2s2,-0.896 2,-2l0,-6c0,-1.104 -0.897,-2 -2,-2z"/>
  <path fill="#e61130" id="svg_3" d="m19,12l0,-2c0,-0.553 -0.447,-1 -1,-1s-1,0.447 -1,1l0,2c0,2.757 -2.243,5 -5,5s-5,-2.243 -5,-5l0,-2c0,-0.553 -0.447,-1 -1,-1s-1,0.447 -1,1l0,2c0,3.52 2.613,6.432 6,6.92l0,1.08l-3,0c-0.553,0 -1,0.447 -1,1s0.447,1 1,1l8,0c0.553,0 1,-0.447 1,-1s-0.447,-1 -1,-1l-3,0l0,-1.08c3.387,-0.488 6,-3.4 6,-6.92z"/>
 </g>
</svg>