<?xml version="1.0" encoding="UTF-8"?>
<svg width="380px" height="323px" viewBox="0 0 380 323" version="1.1" xmlns="http://www.w3.org/2000/svg" xmlns:xlink="http://www.w3.org/1999/xlink">
    <!-- Generator: Sketch 47.1 (45422) - http://www.bohemiancoding.com/sketch -->
    <title>Page 1</title>
    <desc>Created with Sketch.</desc>
    <defs>
        <path d="M13.185,8.479 L13.585,0.062 L20.744,7.351 L23.098,3.335 L25.669,8.496 L32.564,4.472 L33.365,13.164 L38.609,12.746 L36.923,17.168 L46.269,19.894 L40.252,24.906 L45.307,28.326 L40.356,29.422 L46.669,37.299 L37.356,35.687 L39.269,40.951 L33.951,38.076 L33.542,46.49 L26.387,39.203 L24.03,43.216 L21.46,38.057 L14.567,42.08 L13.764,33.386 L8.524,33.806 L10.204,29.38 L0.858,26.653 L6.879,21.647 L1.822,18.226 L6.772,17.126 L0.455,9.251 L9.768,10.864 L7.863,5.606 L13.185,8.479 Z M15.946,8.384 L15.746,12.567 L12.478,10.802 L13.649,14.027 L9.02,13.226 L6.2,12.738 L8.113,15.123 L11.251,19.036 L8.215,19.708 L11.32,21.808 L8.329,24.298 L6.501,25.814 L9.337,26.642 L13.975,27.995 L12.945,30.709 L16.164,30.451 L16.561,34.772 L16.806,37.408 L18.894,36.187 L22.319,34.189 L23.893,37.353 L25.337,34.894 L28.891,38.511 L31.065,40.726 L31.188,38.17 L31.392,33.99 L34.648,35.75 L33.474,32.522 L38.103,33.323 L40.931,33.813 L39.016,31.426 L35.877,27.512 L38.91,26.84 L35.81,24.744 L38.8,22.254 L40.628,20.733 L37.785,19.905 L33.144,18.552 L34.178,15.842 L30.965,16.098 L30.568,11.777 L30.324,9.143 L28.236,10.365 L24.808,12.364 L23.236,9.202 L21.792,11.66 L18.237,8.042 L16.068,5.832 L15.946,8.384 Z" id="path-1"></path>
    </defs>
    <g id="IELTS-Speaking" stroke="none" stroke-width="1" fill="none" fill-rule="evenodd">
        <g id="Task-5" transform="translate(-140.000000, -1336.000000)">
            <g id="Page-1" transform="translate(140.000000, 1336.000000)">
                <path d="M6.8387,48.2869 L255.9787,191.9169 L255.9787,262.6969 L6.8387,119.0669 L6.8387,48.2869 Z M16.3487,131.9469 L81.4787,169.4869 L81.4787,185.1169 L76.7387,182.3369 C76.1587,179.3569 74.9987,176.3069 73.3387,173.4369 C67.5087,163.3369 57.5087,158.5569 50.5787,162.5569 C49.3187,163.2869 48.2687,164.2469 47.4187,165.3969 L46.6087,164.9269 C45.9887,162.1069 44.8887,159.2369 43.3187,156.5269 C37.4887,146.4269 27.4987,141.6469 20.5687,145.6469 C19.4087,146.3069 18.4387,147.1869 17.6287,148.1969 L16.3587,147.4669 L16.3487,147.4669 L16.3487,131.9469 Z M23.7587,151.1869 C26.9887,149.3269 33.5387,152.3769 37.7787,159.7269 C39.7987,163.2269 40.8887,167.1169 40.7687,170.4069 C40.7087,172.0169 40.2887,174.9069 38.1687,176.1269 C36.0387,177.3569 33.3287,176.2769 31.8987,175.5269 C28.9987,173.9869 26.1687,171.0969 24.1487,167.5969 C19.9087,160.2469 20.5387,153.0469 23.7587,151.1869 L23.7587,151.1869 Z M53.7787,168.0969 C57.0087,166.2369 63.5587,169.2869 67.7987,176.6369 C69.8187,180.1469 70.9087,184.0369 70.7887,187.3169 C70.7287,188.9269 70.3087,191.8169 68.1787,193.0469 C66.0587,194.2669 63.3487,193.1869 61.9187,192.4369 C59.0087,190.9069 56.1887,188.0169 54.1687,184.5069 C49.9187,177.1569 50.5587,169.9669 53.7787,168.0969 L53.7787,168.0969 Z M87.8787,173.1769 L98.3087,179.1869 L87.8787,185.2169 L87.8787,173.1769 Z M130.8487,197.9469 L215.5687,246.7869 L215.5687,262.2569 L191.2287,248.1969 C190.6487,245.2869 189.5287,242.2669 187.8387,239.3169 C185.1887,234.7369 181.5287,231.0469 177.5287,228.9369 C173.0387,226.5669 168.6187,226.3969 165.0687,228.4469 C163.8287,229.1669 162.7687,230.1269 161.9087,231.2769 L161.1087,230.8169 C160.5087,228.0469 159.4187,225.1969 157.8187,222.4069 C155.1687,217.8269 151.5087,214.1369 147.5087,212.0269 C143.0287,209.6569 138.5987,209.4769 135.0487,211.5269 C133.9087,212.1869 132.9387,213.0569 132.1187,214.0869 L130.8487,213.3469 L130.8487,197.9469 Z M135.6487,222.8069 C135.7087,221.1869 136.1287,218.2969 138.2587,217.0769 C138.9487,216.6769 139.7087,216.5169 140.4587,216.5169 C142.0087,216.5169 143.5587,217.1769 144.5187,217.6869 C147.4187,219.2169 150.2487,222.1069 152.2687,225.6069 C156.5087,232.9569 155.8787,240.1569 152.6587,242.0169 C149.4287,243.8769 142.8787,240.8269 138.6387,233.4869 C136.6187,229.9769 135.5287,226.0869 135.6487,222.8069 L135.6487,222.8069 Z M165.6687,239.7169 C165.7287,238.0969 166.1487,235.2069 168.2787,233.9869 C168.9687,233.5869 169.7287,233.4269 170.4787,233.4269 C172.0287,233.4269 173.5787,234.0869 174.5387,234.5969 C177.4387,236.1269 180.2687,239.0169 182.2887,242.5269 C186.5287,249.8669 185.8987,257.0669 182.6687,258.9269 C179.4487,260.7869 172.8987,257.7369 168.6587,250.3969 C166.6287,246.8869 165.5487,242.9969 165.6687,239.7169 L165.6687,239.7169 Z M221.9687,250.4769 L255.9787,270.0869 L255.9787,277.3669 C254.3187,277.4669 252.7487,277.9369 251.3187,278.7569 C250.2087,279.3969 249.2587,280.2469 248.4487,281.2369 L221.9687,265.9469 L221.9687,250.4769 Z M251.9187,290.0269 C251.9787,288.4169 252.3987,285.5269 254.5187,284.2969 C256.6487,283.0769 259.3587,284.1469 260.7887,284.9069 C263.6887,286.4369 266.5187,289.3269 268.5387,292.8369 C272.7787,300.1869 272.1487,307.3769 268.9187,309.2369 C265.6987,311.1069 259.1487,308.0569 254.8987,300.7069 C252.8797,297.1969 251.7987,293.3069 251.9187,290.0269 L251.9187,290.0269 Z M263.7787,279.2469 C263.3087,279.0069 262.8387,278.7869 262.3797,278.5869 L262.3797,218.4669 L283.5587,230.5269 L283.5587,269.1969 C283.5587,270.3369 284.1687,271.3969 285.1587,271.9669 L305.8287,283.8969 L305.8287,314.0769 L277.3487,297.9069 C276.7387,295.1869 275.6687,292.3769 274.0887,289.6369 C271.4387,285.0469 267.7687,281.3569 263.7787,279.2469 L263.7787,279.2469 Z M306.2687,246.4869 L305.0387,238.7569 L366.8387,203.0769 L368.1187,210.7769 L306.2687,246.4869 Z M307.3487,253.2569 L369.2387,217.5269 L373.1887,241.2869 L311.1587,277.0969 L307.3487,253.2569 Z M312.2287,283.8769 L373.5387,248.4769 L373.5387,264.7169 L362.9587,271.0769 L362.9587,270.9469 C362.9587,269.8069 362.3487,268.7469 361.3587,268.1769 C360.3687,267.5969 359.1487,267.5969 358.1587,268.1769 L324.4087,287.6569 C323.4187,288.2269 322.8087,289.2869 322.8087,290.4269 L322.8087,294.4169 L312.2287,300.7769 L312.2287,283.8769 Z M312.2287,308.2469 L322.8087,301.8869 L322.8087,307.9369 L312.2287,314.0369 L312.2287,308.2469 Z M329.2087,292.2769 L356.5587,276.4869 L356.5587,288.4469 L329.2087,304.2369 L329.2087,292.2769 Z M362.9587,278.5469 L373.5387,272.1869 L373.5387,278.6469 L362.9587,284.7569 L362.9587,278.5469 Z M298.6087,239.1069 L304.4587,275.7169 L289.9587,267.3469 L289.9587,234.1769 L298.6087,239.1069 Z M362.8087,198.0069 L301.5187,233.3969 L265.6187,212.9469 L326.9187,177.5569 L362.8087,198.0069 Z M323.6887,172.0269 L262.3797,207.4269 L262.3797,191.9169 L323.6887,156.5169 L323.6887,172.0269 Z M320.4887,150.9769 L259.1787,186.3669 L10.0387,42.7469 L71.3587,7.3469 L320.4887,150.9769 Z M0.4387,42.7469 L0.4387,120.9169 C0.4387,122.0569 1.0487,123.1169 2.0387,123.6869 L9.9587,128.2569 L9.9587,149.3069 C9.9587,150.4569 10.5687,151.5069 11.5587,152.0869 L15.0487,154.0969 C14.1387,158.9869 15.2787,165.0369 18.5987,170.7969 C21.2487,175.3769 24.9087,179.0769 28.9087,181.1869 C31.3187,182.4569 33.7087,183.0969 35.9587,183.0969 C37.8987,183.0969 39.7287,182.6269 41.3687,181.6769 C42.8887,180.7869 44.1287,179.5469 45.0687,178.0269 C45.5887,181.1769 46.7587,184.4869 48.6187,187.7069 C51.2687,192.2969 54.9287,195.9869 58.9287,198.0969 C61.3387,199.3669 63.7287,200.0069 65.9787,200.0069 C67.9187,200.0069 69.7387,199.5369 71.3787,198.5869 C74.3687,196.8669 76.2787,193.8069 76.9387,189.8669 L83.0587,193.4569 C83.5587,193.7469 84.1187,193.8969 84.6787,193.8969 C85.2287,193.8969 85.7787,193.7569 86.2687,193.4669 C86.3287,193.4369 104.7087,182.8769 104.7087,182.8769 L124.4487,194.2569 L124.4487,215.1969 C124.4487,216.3469 125.0587,217.3969 126.0487,217.9669 L129.5487,219.9869 C129.3987,220.8169 129.2887,221.6669 129.2487,222.5569 C129.0787,227.0769 130.4387,232.0969 133.0987,236.6869 C137.5287,244.3669 144.3787,248.9669 150.4587,248.9669 C152.3687,248.9669 154.1987,248.5169 155.8487,247.5569 C157.4087,246.6669 158.6387,245.3969 159.5787,243.8769 C160.1087,247.1169 161.2987,250.4569 163.1087,253.5969 C167.5487,261.2769 174.3987,265.8769 180.4787,265.8769 C182.3887,265.8769 184.2187,265.4269 185.8687,264.4669 C188.9387,262.6969 190.8087,259.5469 191.4487,255.7169 L245.8387,287.1169 C245.6787,287.9669 245.5587,288.8469 245.5187,289.7869 C245.3487,294.3069 246.7087,299.3169 249.3587,303.9069 C253.7987,311.5869 260.6487,316.1969 266.7287,316.1969 C268.6387,316.1969 270.4687,315.7369 272.1187,314.7869 C275.3287,312.9369 277.2087,309.5769 277.7587,305.5069 C277.7587,305.5069 307.4187,322.3469 307.4287,322.3569 C307.9187,322.6369 308.4787,322.7869 309.0287,322.7869 C309.5787,322.7869 310.1297,322.6369 310.6297,322.3569 L378.3387,283.2669 C379.3287,282.6869 379.9387,281.6369 379.9387,280.4869 L379.9387,242.9369 C379.9387,242.5969 379.8797,242.2769 379.7787,241.9669 L372.3987,197.4669 C372.2387,196.5269 371.6687,195.6969 370.8287,195.2169 L330.0887,171.9969 L330.0887,150.9669 C330.0887,149.8269 329.4787,148.7769 328.4887,148.1969 L72.9587,0.8769 C71.9687,0.3069 70.7387,0.3069 69.7587,0.8769 L2.0387,39.9769 C1.0487,40.5469 0.4387,41.6069 0.4387,42.7469 L0.4387,42.7469 Z" id="Fill-1" fill="#E61130"></path>
                <g id="Group-5" transform="translate(104.000000, 131.720000)">
                    <mask id="mask-2" fill="white">
                        <use xlink:href="#path-1"></use>
                    </mask>
                    <g id="Clip-4"></g>
                    <polygon id="Fill-3" fill="#E41D31" mask="url(#mask-2)" points="-15.797 37.3157 49.838 65.7927 62.926 9.2187 -2.717 -19.2253"></polygon>
                </g>
            </g>
        </g>
    </g>
</svg>