<?xml version="1.0" encoding="UTF-8"?>
<svg width="380px" height="244px" viewBox="0 0 380 244" version="1.1" xmlns="http://www.w3.org/2000/svg" xmlns:xlink="http://www.w3.org/1999/xlink">
    <!-- Generator: Sketch 47.1 (45422) - http://www.bohemiancoding.com/sketch -->
    <title>Page 1</title>
    <desc>Created with Sketch.</desc>
    <defs></defs>
    <g id="IELTS-Speaking" stroke="none" stroke-width="1" fill="none" fill-rule="evenodd">
        <g id="Task-5" transform="translate(-140.000000, -890.000000)" fill="#E61130">
            <path d="M155.269556,958.322 L155.269556,951.353 C155.355556,951.315 155.438556,951.268 155.525556,951.232 L155.525556,942.949 L220.399556,980.342 L220.399556,995.972 L215.659556,993.192 C215.079556,990.212 213.919556,987.162 212.259556,984.292 C206.429556,974.192 196.429556,969.412 189.499556,973.412 C188.239556,974.142 187.189556,975.102 186.339556,976.252 L185.529556,975.782 C184.909556,972.962 183.809556,970.092 182.239556,967.382 C176.409556,957.282 166.419556,952.502 159.489556,956.502 C158.329556,957.162 157.359556,958.042 156.549556,959.052 L155.279556,958.322 L155.269556,958.322 Z M162.679556,962.042 C165.909556,960.182 172.459556,963.232 176.699556,970.582 C178.719556,974.082 179.809556,977.972 179.689556,981.262 C179.629556,982.872 179.209556,985.762 177.089556,986.982 C174.959556,988.212 172.249556,987.132 170.819556,986.382 C167.919556,984.842 165.089556,981.952 163.069556,978.452 C158.829556,971.102 159.459556,963.902 162.679556,962.042 L162.679556,962.042 Z M192.699556,978.952 C195.929556,977.092 202.479556,980.142 206.719556,987.492 C208.739556,991.002 209.829556,994.892 209.709556,998.172 C209.649556,999.782 209.229556,1002.672 207.099556,1003.902 C204.979556,1005.122 202.269556,1004.042 200.839556,1003.292 C197.929556,1001.762 195.109556,998.872 193.089556,995.362 C188.839556,988.012 189.479556,980.822 192.699556,978.952 L192.699556,978.952 Z M226.799556,984.032 L237.229556,990.042 L226.799556,996.072 L226.799556,984.032 Z M269.769556,1008.802 L354.489556,1057.642 L354.489556,1073.112 L330.149556,1059.052 C329.569556,1056.142 328.449556,1053.122 326.759556,1050.172 C324.109556,1045.592 320.449556,1041.902 316.449556,1039.792 C311.958556,1037.422 307.539556,1037.252 303.989556,1039.302 C302.748556,1040.022 301.689556,1040.982 300.829556,1042.132 L300.029556,1041.672 C299.429556,1038.902 298.338556,1036.052 296.739556,1033.262 C294.088556,1028.682 290.429556,1024.992 286.429556,1022.882 C281.949556,1020.512 277.519556,1020.332 273.969556,1022.382 C272.829556,1023.042 271.859556,1023.912 271.039556,1024.942 L269.769556,1024.202 L269.769556,1008.802 Z M274.569556,1033.662 C274.629556,1032.042 275.049556,1029.152 277.179556,1027.932 C277.869556,1027.532 278.629556,1027.372 279.379556,1027.372 C280.929556,1027.372 282.479556,1028.032 283.439556,1028.542 C286.338556,1030.072 289.168556,1032.962 291.189556,1036.462 C295.429556,1043.812 294.799556,1051.012 291.579556,1052.872 C288.349556,1054.732 281.799556,1051.682 277.559556,1044.342 C275.539556,1040.832 274.449556,1036.942 274.569556,1033.662 L274.569556,1033.662 Z M304.588556,1050.572 C304.649556,1048.952 305.069556,1046.062 307.199556,1044.842 C307.889556,1044.442 308.649556,1044.282 309.399556,1044.282 C310.949556,1044.282 312.498556,1044.942 313.458556,1045.452 C316.359556,1046.982 319.189556,1049.872 321.208556,1053.382 C325.449556,1060.722 324.819556,1067.922 321.588556,1069.782 C318.369556,1071.642 311.819556,1068.592 307.579556,1061.252 C305.549556,1057.742 304.469556,1053.852 304.588556,1050.572 L304.588556,1050.572 Z M444.995556,1124.986 L416.515556,1108.806 C415.915556,1106.086 414.834556,1103.276 413.255556,1100.536 C410.605556,1095.946 406.945556,1092.256 402.945556,1090.146 C402.475556,1089.906 402.015556,1089.686 401.555556,1089.486 L401.555556,1029.468 L402.411556,1029.955 C402.331556,1029.876 402.252556,1029.797 402.173556,1029.718 L422.735556,1041.426 L422.735556,1080.096 C422.735556,1081.236 423.334556,1082.296 424.334556,1082.866 L444.995556,1094.796 L444.995556,1124.986 Z M445.445556,1057.386 L444.205556,1049.656 L506.015556,1013.976 L507.285556,1021.676 L445.445556,1057.386 Z M446.525556,1064.156 L508.405556,1028.426 L512.355556,1052.196 L450.334556,1087.996 L446.525556,1064.156 Z M451.395556,1094.776 L512.715556,1059.376 L512.715556,1075.616 L502.124556,1081.976 L502.124556,1081.846 C502.124556,1080.706 501.515556,1079.646 500.525556,1079.076 C499.535556,1078.506 498.315556,1078.506 497.325556,1079.076 L463.575556,1098.556 C462.584556,1099.126 461.975556,1100.186 461.975556,1101.336 L461.975556,1105.316 L451.395556,1111.676 L451.395556,1094.776 Z M451.395556,1119.146 L461.975556,1112.786 L461.975556,1118.836 L451.395556,1124.936 L451.395556,1119.146 Z M468.374556,1103.176 L495.725556,1087.386 L495.725556,1099.346 L468.374556,1115.136 L468.374556,1103.176 Z M502.124556,1089.446 L512.715556,1083.086 L512.715556,1089.546 L502.124556,1095.656 L502.124556,1089.446 Z M437.785556,1050.006 L443.624556,1086.616 L429.135556,1078.246 L429.135556,1045.076 L437.785556,1050.006 Z M501.975556,1008.916 L440.685556,1044.296 L404.795556,1023.846 L466.084556,988.456 L501.975556,1008.916 Z M423.515556,1005.646 L396.765556,1021.096 C396.294556,1021.364 395.921556,1021.747 395.649556,1022.19 C395.399556,1021.908 395.148556,1021.627 394.899556,1021.344 L394.899556,1059.556 L325.645556,1020.276 L386.925556,984.886 L423.515556,1005.646 Z M371.334556,986.496 L359.765556,993.186 L199.625556,902.736 L210.545556,896.436 L371.334556,986.496 Z M353.325556,996.896 L325.805556,1012.796 L166.645556,921.786 L193.195556,906.456 L353.325556,996.896 Z M319.385556,1016.496 L317.605556,1017.526 C317.445556,1017.616 317.305556,1017.716 317.175556,1017.826 L309.425556,1024.166 L149.245556,931.836 L160.225556,925.496 L319.385556,1016.496 Z M315.276556,1027.649 L319.535556,1024.166 L394.899556,1066.916 L394.899556,1073.552 L315.276556,1027.649 Z M404.257556,1120.467 C400.993556,1119.673 396.994556,1116.654 394.075556,1111.606 C389.834556,1104.256 390.465556,1097.056 393.695556,1095.196 C394.722556,1094.605 395.887556,1094.559 396.980556,1094.749 C398.045556,1094.97 399.025556,1095.399 399.708556,1095.762 C402.609556,1097.292 405.439556,1100.182 407.458556,1103.692 C411.699556,1111.042 411.069556,1118.232 407.838556,1120.092 C406.888556,1120.644 405.643556,1120.756 404.257556,1120.467 L404.257556,1120.467 Z M360.889556,1061.332 L394.899556,1080.942 L394.899556,1088.222 C393.239556,1088.322 391.668556,1088.792 390.239556,1089.612 C389.156556,1090.237 388.227556,1091.064 387.430556,1092.023 L360.889556,1076.697 L360.889556,1061.332 Z M140.595556,934.116 C140.595556,934.126 140.605556,934.126 140.605556,934.136 C140.825556,934.366 141.085556,934.556 141.385556,934.706 C141.425556,934.726 141.475556,934.746 141.525556,934.776 L145.131556,936.854 C145.109556,936.873 145.091556,936.895 145.069556,936.913 L148.879556,939.112 L148.879556,960.162 C148.879556,961.312 149.489556,962.362 150.479556,962.942 L153.969556,964.952 C153.059556,969.842 154.199556,975.892 157.519556,981.652 C160.169556,986.232 163.829556,989.932 167.829556,992.042 C170.239556,993.312 172.629556,993.952 174.879556,993.952 C176.819556,993.952 178.649556,993.482 180.289556,992.532 C181.809556,991.642 183.049556,990.402 183.989556,988.882 C184.509556,992.032 185.679556,995.342 187.539556,998.562 C190.189556,1003.152 193.849556,1006.842 197.849556,1008.952 C200.259556,1010.222 202.649556,1010.862 204.899556,1010.862 C206.839556,1010.862 208.659556,1010.392 210.299556,1009.442 C213.289556,1007.722 215.199556,1004.662 215.859556,1000.722 L221.979556,1004.312 C222.479556,1004.602 223.039556,1004.752 223.599556,1004.752 C224.149556,1004.752 224.699556,1004.612 225.189556,1004.322 C225.249556,1004.292 243.629556,993.732 243.629556,993.732 L263.369556,1005.112 L263.369556,1026.052 C263.369556,1027.202 263.979556,1028.252 264.969556,1028.822 L268.469556,1030.842 C268.319556,1031.672 268.209556,1032.522 268.169556,1033.412 C267.999556,1037.932 269.359556,1042.952 272.019556,1047.542 C276.449556,1055.222 283.299556,1059.822 289.378556,1059.822 C291.289556,1059.822 293.119556,1059.372 294.769556,1058.412 C296.329556,1057.522 297.559556,1056.252 298.498556,1054.732 C299.029556,1057.972 300.219556,1061.312 302.029556,1064.452 C306.469556,1072.132 313.319556,1076.732 319.399556,1076.732 C321.309556,1076.732 323.139556,1076.282 324.789556,1075.322 C327.859556,1073.552 329.729556,1070.402 330.369556,1066.572 L384.759556,1097.972 C384.599556,1098.822 384.479556,1099.702 384.439556,1100.642 C384.269556,1105.162 385.628556,1110.172 388.279556,1114.762 C392.196556,1121.537 397.987556,1125.917 403.471556,1126.857 C404.288556,1127.012 405.098556,1127.096 405.895556,1127.096 C407.805556,1127.096 409.635556,1126.636 411.295556,1125.686 C414.470556,1123.85 416.352556,1120.526 416.918556,1116.498 C419.024556,1117.694 434.847556,1126.677 442.380556,1130.956 L442.380556,1130.86 L446.615556,1133.266 C446.615556,1133.266 447.645556,1133.686 448.195556,1133.686 C448.745556,1133.686 449.295556,1133.546 449.795556,1133.256 L517.505556,1094.166 C518.505556,1093.596 519.105556,1092.536 519.105556,1091.396 L519.105556,1053.836 C519.105556,1053.506 519.045556,1053.176 518.955556,1052.866 L511.565556,1008.366 C511.405556,1007.426 510.845556,1006.596 509.995556,1006.116 L467.655556,981.986 C466.675556,981.426 465.455556,981.426 464.475556,981.996 L429.945556,1001.926 L388.495556,978.416 C387.505556,977.856 386.295556,977.866 385.315556,978.426 L377.785556,982.776 L213.715556,890.876 C213.715556,890.876 210.815556,888.886 207.315556,890.906 L196.375556,897.226 C194.415556,898.356 192.255556,899.596 189.975556,900.916 L178.625556,907.466 L177.215556,908.286 L163.455556,916.236 C161.235556,917.516 159.085556,918.756 157.055556,919.926 L149.965556,924.016 L148.905556,924.636 L146.115556,926.246 C142.685556,928.236 140.595556,929.436 140.595556,929.436 C140.595556,929.436 139.255556,931.296 140.595556,934.116 L140.595556,934.116 Z" id="Page-1"></path>
        </g>
    </g>
</svg>